<?xml version="1.0" encoding="utf-8"?><!-- Uploaded to: SVG Repo, www.svgrepo.com, Generator: SVG Repo Mixer Tools -->
<svg width="800px" height="800px" viewBox="0 0 24 24" fill="none" xmlns="http://www.w3.org/2000/svg">
<path d="M18.5 18C18.5 19.1046 17.6046 20 16.5 20C15.3954 20 14.5 19.1046 14.5 18M18.5 18C18.5 16.8954 17.6046 16 16.5 16C15.3954 16 14.5 16.8954 14.5 18M18.5 18H21.5M14.5 18H13.5M8.5 18C8.5 19.1046 7.60457 20 6.5 20C5.39543 20 4.5 19.1046 4.5 18M8.5 18C8.5 16.8954 7.60457 16 6.5 16C5.39543 16 4.5 16.8954 4.5 18M8.5 18H13.5M4.5 18C3.39543 18 2.5 17.1046 2.5 16V7.2C2.5 6.0799 2.5 5.51984 2.71799 5.09202C2.90973 4.71569 3.21569 4.40973 3.59202 4.21799C4.01984 4 4.5799 4 5.7 4H10.3C11.4201 4 11.9802 4 12.408 4.21799C12.7843 4.40973 13.0903 4.71569 13.282 5.09202C13.5 5.51984 13.5 6.0799 13.5 7.2V18M13.5 18V8H17.5L20.5 12M20.5 12V18M20.5 12H13.5" stroke="#000000" stroke-width="2" stroke-linecap="round" stroke-linejoin="round"/>
</svg>